<svg width="51" height="49" viewBox="0 0 51 49" fill="none" xmlns="http://www.w3.org/2000/svg">
<path d="M16.7049 4.5526L16.3309 7.15535L4.47767 18.1198C4.0278 18.4954 3.69155 18.9891 3.50667 19.5453C3.43528 19.7528 3.38417 19.9668 3.35406 20.1842V21.0395C3.80854 21.0764 4.33345 21.0395 4.90532 20.912L42.4104 10.1522C42.5352 10.1164 42.6666 10.11 42.7942 10.1336C42.9218 10.1572 43.0423 10.2101 43.146 10.2881C43.2497 10.3661 43.3339 10.4672 43.3919 10.5833C43.4499 10.6994 43.4802 10.8274 43.4804 10.9572V19.0841C43.4812 19.2641 43.4239 19.4395 43.3169 19.5843C43.2099 19.729 43.059 19.8353 42.8867 19.8874C35.709 22.0507 7.17434 30.6489 6.47334 30.8384C5.6801 31.0564 3.92425 31.3851 3.35406 31.3113V36.5688C3.86556 36.6392 4.39717 36.6191 4.90532 36.4833L42.4088 25.6245C42.5336 25.5884 42.6652 25.5817 42.793 25.6052C42.9209 25.6286 43.0415 25.6814 43.1455 25.7595C43.2494 25.8376 43.3338 25.9388 43.3919 26.055C43.45 26.1713 43.4803 26.2995 43.4804 26.4295V34.231L44.7449 33.8688L44.7566 33.8654L44.827 33.8419C45.2376 33.7067 45.6328 33.5286 46.006 33.3103C46.7657 32.8575 46.8344 32.5506 46.8344 32.5121V10.6704C46.8344 10.3048 46.6835 9.65748 46.2861 9.03195C45.9138 8.44498 45.3855 7.97039 44.6929 7.74063L30.8456 4.4939C30.7844 3.94145 30.6097 3.40761 30.3325 2.92588C29.992 2.25339 29.3212 1.3327 28.6739 0.541138L45.523 4.49055C45.5625 4.50028 45.6017 4.51146 45.6404 4.52409C47.2587 5.02719 48.3974 6.10049 49.1169 7.23417C49.8212 8.34101 50.1885 9.60381 50.1885 10.6704V32.5121C50.1885 34.491 48.6071 35.6649 47.7182 36.1931C47.0958 36.5597 46.4336 36.854 45.7444 37.0702L45.7008 37.0836L45.6857 37.087L45.6806 37.0887C45.6806 37.0887 45.4358 37.1591 45.6773 37.0887L4.74432 48.838C4.72043 48.8447 4.69639 48.8508 4.67221 48.8564C3.47649 49.1415 2.11809 49.066 1.1169 48.043C0.219691 47.1274 0 45.821 0 44.6554V20.1121L0.00167711 20.0215V19.9964L0.00670824 19.9595C0.0167112 19.8099 0.0351882 19.6609 0.0620502 19.5134C0.109007 19.2417 0.191182 18.8744 0.335406 18.4535C0.704246 17.3641 1.35524 16.392 2.22207 15.6361L17.9794 1.06269C17.9435 1.11416 17.9082 1.16615 17.8738 1.21866C17.1091 2.40264 16.876 3.63861 16.7619 4.24402L16.7552 4.28427C16.7394 4.37389 16.7226 4.46333 16.7049 4.5526Z" fill="#474747"/>
</svg>
