<svg width="166" height="30" viewBox="0 0 166 30" fill="none" xmlns="http://www.w3.org/2000/svg">
<path d="M34.0034 9.33314H36.3825V7.04762C36.3825 4.28699 37.9086 2.47656 40.9536 2.47656L42.4797 2.7645V5.52513L40.86 5.23719C39.9062 5.23719 39.5283 5.81307 39.5283 6.76328V9.33314H42.5732V12.0938H39.5247V23.5214H36.4797V12.0938H34.0034V9.33314ZM50.2865 9.0488C54.1916 9.0488 57.7153 12.0938 57.7153 16.4777C57.7153 20.8616 54.2888 23.9029 50.2865 23.9029C46.2841 23.9029 42.8612 20.858 42.8612 16.4777C42.8612 12.0002 46.3813 9.0488 50.2865 9.0488ZM50.2865 21.1423C53.1443 21.1423 54.6667 19.0475 54.6667 16.4777C54.6667 13.9078 53.1443 11.8094 50.2865 11.8094C47.4286 11.8094 45.9062 13.9042 45.9062 16.4777C45.9062 18.9504 47.4322 21.1423 50.2865 21.1423ZM66.3823 9.0488C70.2875 9.0488 73.8076 12.0938 73.8076 16.4777C73.8076 20.8616 70.3811 23.9029 66.3823 23.9029C62.3835 23.9029 58.9535 20.858 58.9535 16.4777C59.047 12.0002 62.4771 9.0488 66.3823 9.0488ZM66.3823 21.1423C69.2365 21.1423 70.7626 19.0475 70.7626 16.4777C70.7626 13.9078 69.2365 11.8094 66.3823 11.8094C63.5281 11.8094 62.002 13.9042 62.002 16.4777C62.002 18.9504 63.5245 21.1423 66.3823 21.1423ZM89.6191 23.5214H86.8549L86.5669 22.2869L86.3798 22.0961L86.189 22.2869C85.2352 23.2371 83.8099 23.8093 82.2838 23.8093C78.3786 23.8093 75.0493 20.7608 75.0493 16.3805C75.0493 12.0002 78.3786 8.95162 82.2838 8.95162C83.8099 8.95162 85.3324 9.5275 86.189 10.4777L86.3798 10.6685L86.5705 10.4777V2.57374H89.6191V23.5214ZM82.4746 11.7159C79.6168 11.7159 78.0943 13.8106 78.0943 16.3805C78.0943 18.9504 79.6168 21.0487 82.4746 21.0487C85.0481 21.0487 86.8549 18.9504 86.8549 16.3805C86.8549 13.9042 85.0481 11.7159 82.4746 11.7159ZM92.6641 9.33314H95.4283L95.7127 10.5713L95.9034 10.762L96.0942 10.5713C97.0444 9.62108 98.4733 9.0488 99.9994 9.0488C103.901 9.0488 107.234 12.0938 107.234 16.4777C107.234 20.8616 103.901 23.9029 99.9994 23.9029C98.4733 23.9029 96.9508 23.3342 96.0942 22.3804L95.9034 22.1897L95.7127 22.3804V30.0001H92.7613V9.33314H92.6641ZM99.7114 21.1423C102.569 21.1423 104.092 19.0475 104.092 16.4777C104.092 13.9078 102.569 11.8094 99.7114 11.8094C97.1416 11.8094 95.3311 13.9042 95.3311 16.4777C95.3311 18.9504 97.1416 21.1423 99.7114 21.1423ZM114.76 14.6672H117.233V14.0014C117.233 12.2845 116.092 11.5251 114.472 11.5251C113.14 11.5251 112.284 12.191 111.809 13.4291L109.141 12.8568C109.71 10.4777 111.805 8.95162 114.569 8.95162C118.377 8.95162 120.281 10.8592 120.281 14.5701V23.4278H117.805L117.517 21.5202C116.567 22.9527 115.044 23.6186 113.043 23.6186C110.473 23.6186 108.663 22.0961 108.663 19.2383C108.569 16.4777 111.045 14.6672 114.76 14.6672ZM113.428 21.1423C114.378 21.1423 115.329 20.8544 115.998 20.1885C116.758 19.5226 117.139 18.666 117.139 17.525V17.2371H114.569C112.759 17.2371 111.618 18.0937 111.618 19.4291C111.618 20.3793 112.284 21.1423 113.425 21.1423H113.428ZM122.948 9.33314H125.709L125.997 10.5713L126.188 10.762L126.375 10.5713C126.951 9.62108 128.473 9.0488 129.711 9.0488C133.328 9.0488 135.423 11.4279 135.423 14.7608V23.5214H132.375V14.7608C132.281 12.8568 131.331 11.7159 129.33 11.7159C127.519 11.7159 126.09 13.1448 125.997 14.9552V23.5214H122.948V9.33314ZM151.706 23.5214H148.946L148.658 22.2869L148.471 22.0961L148.28 22.2869C147.326 23.2371 145.897 23.8093 144.375 23.8093C140.469 23.8093 137.14 20.7608 137.14 16.3805C137.14 12.0002 140.469 8.95162 144.375 8.95162C145.897 8.95162 147.423 9.5275 148.28 10.4777L148.471 10.6685L148.661 10.4777V2.57374H151.706V23.5214ZM144.659 11.7159C141.805 11.7159 140.279 13.8106 140.279 16.3805C140.279 18.9504 141.805 21.0487 144.659 21.0487C147.232 21.0487 149.043 18.9504 149.043 16.3805C149.043 13.9042 147.232 11.7159 144.659 11.7159ZM160.373 14.6672H162.85V14.0014C162.85 12.2845 161.709 11.5251 160.089 11.5251C158.757 11.5251 157.897 12.191 157.422 13.4291L154.758 12.8568C155.327 10.4777 157.422 8.95162 160.183 8.95162C163.994 8.95162 165.898 10.8592 165.898 14.5701V23.4278H163.422L163.134 21.5202C162.184 22.9527 160.658 23.6186 158.66 23.6186C156.087 23.6186 154.28 22.0961 154.28 19.2383C154.183 16.4777 156.565 14.6672 160.373 14.6672ZM159.042 21.1423C159.992 21.1423 160.946 20.8544 161.611 20.1885C162.374 19.5226 162.756 18.666 162.756 17.525V17.2371H160.183C158.372 17.2371 157.231 18.0937 157.231 19.4291C157.231 20.3793 157.897 21.1423 159.042 21.1423Z" fill="#D70F64"/>
<path d="M12.9405 19.0468C14.6573 19.0468 16.0862 17.8086 16.0862 16.2861H9.79834C9.79834 17.8086 11.1265 19.0468 12.9405 19.0468Z" fill="#D70F64"/>
<path d="M23.5215 5.90658C24.2845 5.33429 24.6661 4.38049 24.6661 3.33311C24.6661 1.4291 23.1436 0.00019696 21.236 0.00019696C20.0014 0.00019696 18.9504 0.572479 18.3818 1.52628C16.6611 0.690508 14.7696 0.266614 12.8569 0.288137C10.9481 0.292584 9.06353 0.715208 7.33565 1.52628C6.75977 0.568879 5.71598 0.00019696 4.47784 0.00019696C3.58196 -0.0094486 2.7186 0.33552 2.07604 0.959873C1.43348 1.58423 1.06385 2.43732 1.04775 3.33311C1.05572 3.81698 1.16119 4.29427 1.35785 4.73645C1.55451 5.17862 1.83832 5.5766 2.19231 5.90658C0.74607 8.0055 -0.0192139 10.4986 0.000366566 13.0475C0.00132009 16.4573 1.35604 19.7272 3.76679 22.1387C6.17755 24.5501 9.4471 25.9057 12.8569 25.9076C16.2661 25.9057 19.5351 24.5506 21.9457 22.1399C24.3564 19.7293 25.7115 16.4603 25.7134 13.0511C25.7134 10.3876 24.9504 7.90776 23.5215 5.91017V5.90658ZM12.9541 24.8567C6.47183 24.8567 1.14493 19.5226 1.14493 13.0511C1.14493 10.5712 1.90437 8.28568 3.14252 6.38168C4.29496 4.63925 5.91202 3.2541 7.81075 2.3829C9.33323 1.61986 11.1437 1.23834 12.9505 1.23834C14.7573 1.23834 16.5677 1.61986 18.0902 2.3829C19.9978 3.33311 21.5203 4.66843 22.7585 6.38168C23.9966 8.28928 24.756 10.5712 24.756 13.0475C24.756 19.5262 19.4255 24.8531 12.9505 24.8531L12.9541 24.8567Z" fill="#D70F64"/>
<path d="M12.9377 15.524C13.132 15.6176 15.1332 14.8581 15.1332 13.9043C15.1332 13.332 13.5135 13.2385 12.9377 13.2385C12.3618 13.2385 10.7493 13.332 10.7493 13.9043C10.6557 14.8581 12.7469 15.6176 12.9377 15.524ZM20.3665 7.52285C19.2256 6.76341 16.7493 6.38189 15.7955 7.62003C15.7955 7.62003 14.5573 8.95175 15.7955 10.2835C17.0336 11.6152 17.8902 12.9541 18.1782 14.0015C18.4661 15.1425 18.9376 15.524 19.7978 15.524C20.6581 15.524 22.3677 14.1923 22.6521 12.0003C22.7242 11.1154 22.5485 10.2279 22.1449 9.43714C21.7413 8.64637 21.1255 7.98354 20.3665 7.52285ZM17.7967 10.2871C17.4151 10.2871 17.1308 9.99914 17.1308 9.62121C17.1308 9.24329 17.4187 8.95175 17.7967 8.95175C18.1746 8.95175 18.4625 9.23969 18.4625 9.62121C18.4625 10.0027 18.1746 10.2871 17.7967 10.2871ZM9.98628 7.62003C9.03608 6.38189 6.55979 6.76341 5.41523 7.52285C4.27066 8.28229 2.93894 9.80838 3.1297 12.0003C3.32046 14.1923 5.0373 15.524 5.98751 15.524C6.84413 15.524 7.31923 15.0489 7.60717 14.0015C7.89511 12.8569 8.84532 11.6188 9.98628 10.2871C11.2244 8.85817 9.98628 7.62003 9.98628 7.62003ZM8.17945 10.2835C7.79793 10.2835 7.50999 9.99914 7.50999 9.62121C7.50999 9.24329 7.79793 8.95175 8.17945 8.95175C8.56097 8.95175 8.84532 9.23969 8.84532 9.62121C8.84532 10.0027 8.55737 10.2835 8.17945 10.2835Z" fill="#D70F64"/>
</svg>
