<svg width="118" height="26" viewBox="0 0 118 26" fill="none" xmlns="http://www.w3.org/2000/svg">
<path d="M98.8487 1.07103H94.7485C94.5172 1.07103 94.4018 1.1866 94.4018 1.41764V17.6463C94.4018 18.4549 94.142 19.0612 93.7953 19.5235C93.4489 19.9855 92.9869 20.1009 92.4092 20.1009C91.8318 20.1009 91.3408 19.8698 90.9943 19.5235C90.6479 19.0612 90.4169 18.4549 90.4169 17.6463V1.41764C90.4169 1.1866 90.1856 1.07103 90.0702 1.07103H85.9408C85.7097 1.07103 85.5943 1.1866 85.5943 1.41764V17.762C85.5943 19.8699 86.0564 21.8624 87.3557 23.1618C88.6263 24.4614 90.3879 25.1544 92.4091 25.1544C94.5171 25.1544 96.2786 24.4614 97.4626 23.1618C98.7333 21.8914 99.2242 20.0145 99.2242 17.762V1.41764C99.3396 1.30226 99.1087 1.07103 98.8487 1.07103ZM114.587 12.5931C115.28 11.8999 116.579 10.254 116.579 8.11713C116.579 5.63386 115.627 4.13223 114.905 3.29462C113.605 1.90855 111.872 1.1866 109.851 1.1866H103.383C103.123 1.1866 103.007 1.41764 103.007 1.53303V24.4614C103.007 24.6923 103.238 24.808 103.383 24.808H110.226C112.334 24.808 114.327 23.9994 115.627 22.3245C116.319 21.4004 117.157 19.8409 117.157 17.5021C116.926 14.701 115.193 13.055 114.587 12.5931ZM107.772 5.89345H109.88C110.457 5.89345 110.919 6.00883 111.266 6.47101C111.641 6.84635 111.757 7.424 111.757 8.14586C111.757 8.86772 111.641 9.41627 111.266 9.90745C110.919 10.2539 110.457 10.4849 109.995 10.4849H107.887V5.89345H107.772ZM111.526 19.4078C111.179 19.8699 110.717 19.9855 109.995 19.9855H107.656V15.0185H109.995C110.573 15.0185 111.035 15.2783 111.381 15.6251C111.757 16.087 111.988 16.6645 111.988 17.3864C112.103 18.3393 111.901 18.917 111.526 19.4078ZM27.8984 14.5854C28.3604 14.239 28.7359 14.0079 29.0824 13.517C29.8909 12.593 30.9593 10.9468 30.9593 8.34799C30.9593 5.86454 30.0064 4.24752 29.0824 3.29462C27.8984 1.90855 26.1368 1.1866 24.1444 1.07103H17.3294C17.0984 1.07103 16.9829 1.30226 16.9829 1.41764V24.3172C16.9829 24.5481 17.214 24.6636 17.3294 24.6636H21.4299C21.6609 24.6636 21.7765 24.4324 21.7765 24.3172V15.8561H23.1915L25.7615 24.5481C25.7615 24.6636 26.0214 24.7791 26.1369 24.7791H30.4684C30.5839 24.7791 30.6995 24.6636 30.815 24.6636C30.9304 24.6636 30.9304 24.4324 30.9304 24.3172L27.8984 14.5854ZM25.2994 10.3403C24.9529 10.8027 24.3753 11.0623 23.6534 11.0623H21.6609V5.89345H23.6534C24.3464 5.89345 24.9239 6.12449 25.2994 6.58649C25.7614 7.07758 25.9058 7.65504 25.9058 8.46365C25.9058 9.30098 25.7903 9.87835 25.2994 10.3403ZM62.6373 12.5931C63.3592 11.8999 64.6299 10.254 64.6299 8.11713C64.6299 5.63386 63.7058 4.13223 62.9839 3.29462C61.6845 1.90855 59.9228 1.1866 57.9304 1.1866H51.4907C51.2598 1.1866 51.1442 1.41764 51.1442 1.53303V24.4614C51.1442 24.6923 51.3753 24.808 51.4907 24.808H58.3058C60.4138 24.808 62.4063 23.9994 63.7346 22.3245C64.4277 21.4004 65.2651 19.8409 65.2651 17.5021C65.1208 14.701 63.3592 13.055 62.6373 12.5931ZM55.8511 5.89345H57.9592C58.5368 5.89345 58.9989 6.00883 59.3454 6.47101C59.6918 6.84635 59.8075 7.424 59.8075 8.14586C59.8075 8.86772 59.6918 9.41627 59.3454 9.90745C58.9988 10.2539 58.5368 10.4849 58.0747 10.4849H55.9666V5.89345H55.8511ZM59.7206 19.4078C59.3743 19.8699 58.912 19.9855 58.1902 19.9855H55.8511V15.0185H58.1902C58.7677 15.0185 59.2297 15.2783 59.5763 15.6251C59.9227 16.087 60.1826 16.6645 60.1826 17.3864C60.2116 18.3393 60.0962 18.917 59.7206 19.4078ZM6.84717 0.724609C4.73906 0.724609 2.97765 1.41764 1.79371 2.71697C0.523027 4.01648 0.0610352 5.86454 0.0610352 8.11704V17.8773C0.0610352 19.9855 0.523027 21.9777 1.79371 23.2774C3.09313 24.577 4.85463 25.2701 6.84717 25.2701C8.9551 25.2701 10.7454 24.5771 11.9294 23.2774C13.2001 22.0067 13.662 20.1298 13.662 17.8773V12.5061C13.662 12.2464 13.431 12.0155 13.2 12.0155H7.22251C6.96274 12.0155 6.7317 12.2464 6.7317 12.5061V16.4913C6.7317 16.7222 6.96274 16.9534 7.22251 16.9534H8.75306V17.9063C8.75306 18.7149 8.52202 19.4368 8.1756 19.8989C7.8289 20.361 7.33817 20.4764 6.76052 20.4764C6.18305 20.4764 5.72097 20.2454 5.34563 19.8989C4.99911 19.4368 4.76816 18.715 4.76816 17.9063V8.26161C4.76816 7.424 4.99911 6.70205 5.34563 6.2687C5.72106 5.80671 6.18305 5.69132 6.76052 5.69132C7.33817 5.69132 7.82899 5.92237 8.1756 6.2687C8.52211 6.73078 8.75306 7.424 8.75306 8.26161V9.1856C8.75306 9.41636 8.98401 9.56084 9.09958 9.56084H13.2001C13.4311 9.56084 13.5467 9.41636 13.5467 9.1856V8.26161C13.5467 6.15332 13.0847 4.16087 11.7853 2.86145C10.7455 1.41764 8.83962 0.724609 6.84717 0.724609ZM47.0438 1.07103H42.9432C42.7122 1.07103 42.5966 1.1866 42.5966 1.41764V17.6463C42.5966 18.4549 42.3369 19.0612 41.9904 19.5235C41.6437 19.9855 41.1817 20.1009 40.6042 20.1009C40.0267 20.1009 39.5357 19.8698 39.1893 19.5235C38.8428 19.0612 38.6118 18.4549 38.6118 17.6463V1.41764C38.6118 1.1866 38.3519 1.07103 38.2364 1.07103H34.1359C33.9049 1.07103 33.7894 1.1866 33.7894 1.41764V17.762C33.7894 19.8699 34.2803 21.8624 35.5508 23.1618C36.8502 24.4614 38.6118 25.1544 40.6043 25.1544C42.7124 25.1544 44.5027 24.4614 45.6577 23.1618C46.9572 21.8914 47.4191 20.0145 47.4191 17.762V1.41764C47.3903 1.30226 47.2748 1.07103 47.0438 1.07103ZM81.5804 1.07103H77.4799C77.249 1.07103 77.1335 1.30226 77.1335 1.41764V10.3403H73.0331V1.41764C73.0331 1.1866 72.802 1.07103 72.6864 1.07103H68.5859C68.3548 1.07103 68.2395 1.30226 68.2395 1.41764V24.3172C68.2395 24.5481 68.4705 24.6636 68.5859 24.6636H72.6864C72.9174 24.6636 73.0331 24.4324 73.0331 24.3172V15.1631H77.1335V24.3172C77.1335 24.5481 77.3646 24.6636 77.4799 24.6636H81.5804C81.8116 24.6636 81.9271 24.4324 81.9271 24.3172V1.41764C81.9271 1.30226 81.8116 1.07103 81.5804 1.07103Z" fill="#F63440"/>
</svg>
