<svg width="153" height="26" viewBox="0 0 153 26" fill="none" xmlns="http://www.w3.org/2000/svg">
<path d="M0.797852 24.8841V0.724609H10.8492C15.1738 0.724609 17.986 3.87549 17.986 8.06618C17.986 12.2569 15.1738 15.4156 10.8492 15.4156H4.64194V24.8683L0.797852 24.8841ZM4.64194 3.98578V12.186H10.6759C12.5979 12.186 14.1419 10.2324 14.1419 8.06618C14.1419 5.89994 12.5664 3.98578 10.6759 3.98578H4.64194ZM37.3797 19.8111C38.6165 19.5669 39.8217 19.3306 41.019 19.1258C41.2632 20.4965 42.0824 22.1428 44.8631 22.1428C45.4854 22.1428 48.5339 21.9065 48.5339 19.7087C48.5339 15.5574 37.8996 19.8426 37.8996 12.3987C37.8996 9.4447 40.8457 7.21544 44.5559 7.21544C48.2661 7.21544 51.417 8.79089 51.9368 12.635C50.7001 12.8477 49.4949 13.084 48.2976 13.3282C48.0534 11.1619 46.7221 10.3742 44.6583 10.3742C42.8386 10.3742 41.6019 11.3352 41.6019 12.3987C41.6019 13.8087 42.9095 14.1789 44.9655 14.3916C48.9041 14.8012 52.2047 15.6598 52.2047 19.7087C52.2047 23.348 49.0538 25.2701 44.8631 25.2701C40.4046 25.2701 37.8602 22.9069 37.3797 19.8111ZM53.1736 10.3585V7.52265H56.159V2.48123H59.8692V7.49115H63.4691V10.3585H59.8692V20.205C59.8692 21.5756 60.2788 21.9931 61.4447 21.9931C61.9567 21.9931 63.091 21.9222 63.091 21.9222V24.9077C63.091 24.9077 61.7598 25.0416 60.4443 25.0416C57.1831 25.0416 56.1197 23.2929 56.1197 19.9687V10.3585H53.1736ZM76.3799 15.2108C76.3799 12.5641 75.797 10.3348 73.0163 10.3348C70.3696 10.3348 69.6527 12.5641 69.6527 15.2108V24.8841H65.9426V7.55417H69.3061L69.6527 9.43682C70.1648 8.4758 72.2286 7.20756 74.253 7.20756C75.2217 7.15075 76.1872 7.36453 77.0413 7.825C77.8955 8.28546 78.6047 8.97445 79.0897 9.81493C80.0192 8.23948 82.2406 7.20756 84.3044 7.20756C89.0307 7.20756 90.4801 10.0906 90.4801 15.2423V24.9156H86.8251V15.2108C86.8251 12.5956 86.1083 10.3033 83.4615 10.3033C80.6809 10.3033 80.098 12.5326 80.098 15.2108V24.8841H76.3957L76.3799 15.2108ZM97.2073 13.5094C96.01 13.3045 94.7732 13.0288 93.5365 12.824C93.9146 8.97995 97.0734 7.19181 100.713 7.19181C105.62 7.19181 108.157 9.55498 108.157 14.3286V20.3704C108.157 21.4023 108.361 21.9853 109.086 21.9853C109.388 21.9809 109.688 21.9332 109.976 21.8435V24.8683C109.26 25.0624 108.52 25.1553 107.779 25.144C107.056 25.1903 106.343 24.9608 105.783 24.5017C105.223 24.0427 104.858 23.3882 104.762 22.6706C104.096 23.4636 103.267 24.1041 102.332 24.5486C101.397 24.993 100.377 25.231 99.342 25.2464C95.3246 25.2464 92.9221 23.0093 92.9221 19.7324C92.9221 17.0226 95.4271 14.5492 100.012 14.5492H104.478V13.5094C104.478 12.1702 103.927 10.3585 100.736 10.3585C98.6095 10.3585 97.3018 11.4219 97.2309 13.5094M104.478 18.1727V17.3141H100.39C97.3412 17.3141 96.7189 18.8895 96.7189 19.7166C96.7189 20.8825 97.5066 22.0798 99.7753 22.0798C102.792 22.0798 104.502 20.0238 104.502 18.1412M27.0133 25.2622C25.2263 25.2622 23.4794 24.7323 21.9936 23.7395C20.5078 22.7467 19.3497 21.3356 18.6659 19.6846C17.982 18.0337 17.8031 16.217 18.1517 14.4643C18.5003 12.7117 19.3608 11.1018 20.6244 9.83816C21.888 8.57457 23.4979 7.71404 25.2506 7.36542C27.0033 7.01679 28.8199 7.19572 30.4709 7.87957C32.1219 8.56343 33.533 9.72148 34.5258 11.2073C35.5186 12.6931 36.0485 14.44 36.0485 16.227C36.0464 18.6226 35.0938 20.9196 33.3998 22.6135C31.7058 24.3075 29.4089 25.2601 27.0133 25.2622ZM27.0133 10.642C25.9068 10.642 24.8252 10.9703 23.9053 11.5852C22.9853 12.2001 22.2685 13.074 21.8454 14.0964C21.4224 15.1188 21.3121 16.2438 21.5285 17.3289C21.7449 18.414 22.2784 19.4105 23.0613 20.1924C23.8443 20.9743 24.8416 21.5063 25.927 21.7212C27.0124 21.9361 28.1372 21.8242 29.159 21.3997C30.1809 20.9752 31.0538 20.2571 31.6674 19.3364C32.281 18.4156 32.6077 17.3335 32.6061 16.227C32.604 14.745 32.0139 13.3245 30.9652 12.2774C29.9166 11.2302 28.4952 10.642 27.0133 10.642ZM133.041 18.8501C134.175 19.1573 135.302 19.496 136.436 19.8426C135.648 22.3476 133.285 25.2307 128.559 25.2307C123.832 25.2307 120.39 21.5599 120.39 16.2034C120.39 10.8468 123.541 7.17606 128.385 7.17606C133.23 7.17606 136.215 10.4057 136.215 15.652C136.226 16.2043 136.202 16.7568 136.144 17.3062H124.218C124.289 19.8427 126.038 22.1034 128.543 22.1034C129.546 22.1316 130.531 21.828 131.344 21.2399C132.157 20.6517 132.754 19.8117 133.041 18.8501ZM132.253 14.5255C132.151 11.9497 130.914 10.3033 128.37 10.3033C125.825 10.3033 124.494 12.3593 124.392 14.5255H132.253ZM137.807 19.8111C139.043 19.5748 140.249 19.3306 141.446 19.1258C141.69 20.4965 142.509 22.1428 145.29 22.1428C145.904 22.1428 148.961 21.9065 148.961 19.7087C148.961 15.5574 138.326 19.8505 138.326 12.3987C138.326 9.45258 141.273 7.21544 144.983 7.21544C148.693 7.21544 151.844 8.79089 152.356 12.6429C151.127 12.8477 149.922 13.084 148.724 13.3282C148.48 11.1619 147.149 10.3742 145.085 10.3742C143.266 10.3742 142.029 11.3352 142.029 12.3987C142.029 13.8087 143.336 14.1868 145.392 14.3916C149.331 14.8012 152.632 15.6598 152.632 19.7087C152.632 23.348 149.481 25.2701 145.29 25.2701C140.831 25.2701 138.287 22.9069 137.807 19.8111ZM109.425 10.3585V7.52265H112.41V2.48123H116.121V7.49115H119.72V10.3585H116.121V20.205C116.121 21.5756 116.53 21.9931 117.735 21.9931C118.247 21.9931 119.382 21.9222 119.382 21.9222V24.9077C119.382 24.9077 118.058 25.0416 116.735 25.0416C113.482 25.0416 112.41 23.2929 112.41 19.9687V10.3585H109.425Z" fill="black"/>
</svg>
