<svg width="152" height="26" viewBox="0 0 152 26" fill="none" xmlns="http://www.w3.org/2000/svg">
<path d="M80.3081 0.728516H97.2093V4.86388H84.8735V10.7361H96.8661V14.7309H84.8735V20.7023H97.2093V24.8377H80.3081V0.728516ZM143.885 25.2719C149.067 25.2719 151.986 22.7907 151.986 19.3831C151.986 16.9557 150.258 15.1444 146.639 14.3587L142.814 13.5771C140.593 13.1635 139.895 12.75 139.895 11.9229C139.895 10.8519 140.966 10.1944 142.938 10.1944C145.076 10.1944 146.66 10.7692 147.074 12.7459H151.556C151.312 9.02405 148.637 6.56765 143.211 6.56765C138.522 6.56765 135.23 8.503 135.23 12.2538C135.23 14.8466 137.041 16.5339 140.949 17.3568L145.225 18.3452C146.912 18.676 147.363 19.1309 147.363 19.8298C147.363 20.9422 146.089 21.641 144.03 21.641C141.441 21.641 139.961 21.0662 139.386 19.0895H134.878C135.536 22.8031 138.29 25.2719 143.885 25.2719ZM133.576 24.8211H128.725C125.681 24.8211 123.994 22.9271 123.994 20.5369V11.0669H120.582V7.03081H124.011V1.96499H128.518V7.03081H133.576V11.0669H128.518V19.3831C128.518 20.3301 129.176 20.785 130.205 20.785H133.576V24.8211ZM114.14 7.03908V8.6436C112.552 7.30203 110.54 6.56907 108.462 6.57592C107.218 6.54975 105.981 6.77219 104.824 7.23022C103.667 7.68824 102.613 8.37263 101.723 9.24326C100.834 10.1139 100.128 11.1533 99.6456 12.3004C99.1634 13.4476 98.915 14.6795 98.915 15.9239C98.915 17.1683 99.1634 18.4002 99.6456 19.5474C100.128 20.6945 100.834 21.7339 101.723 22.6045C102.613 23.4752 103.667 24.1596 104.824 24.6176C105.981 25.0756 107.218 25.2981 108.462 25.2719C110.54 25.2809 112.554 24.5477 114.14 23.2042V24.8129H118.635V7.03081L114.14 7.03908ZM108.834 21.3681C107.756 21.3804 106.698 21.0719 105.796 20.4817C104.893 19.8915 104.186 19.0463 103.765 18.0535C103.344 17.0608 103.228 15.9653 103.431 14.9062C103.634 13.8472 104.148 12.8724 104.906 12.1059C105.664 11.3393 106.634 10.8155 107.69 10.6011C108.747 10.3866 109.844 10.4912 110.841 10.9016C111.838 11.3119 112.691 12.0095 113.291 12.9056C113.891 13.8017 114.211 14.8559 114.21 15.9342C114.216 16.6451 114.082 17.3502 113.814 18.0087C113.546 18.6672 113.151 19.2661 112.65 19.7707C112.149 20.2753 111.553 20.6755 110.897 20.9483C110.24 21.2211 109.536 21.361 108.826 21.3598L108.834 21.3681Z" fill="#05C167"/>
<path d="M70.2509 10.368C67.9888 10.368 66.3843 12.138 66.3843 14.8549V24.8211H62.9313V7.27893H66.3429V9.42105C66.7638 8.71107 67.3668 8.12656 68.0896 7.7281C68.8123 7.32963 69.6285 7.13172 70.4535 7.15487H71.6941V10.368H70.2509ZM60.5452 16.05C60.5452 10.8188 56.8233 6.90675 51.7865 6.90675C50.5964 6.91483 49.4196 7.15814 48.3239 7.62269C47.2282 8.08724 46.2352 8.76386 45.402 9.61362C44.5687 10.4634 43.9117 11.4695 43.4688 12.5741C43.0259 13.6787 42.8057 14.86 42.821 16.05C42.821 21.2771 46.853 25.2305 52.1132 25.2305C53.5825 25.2583 55.037 24.9324 56.354 24.2804C57.6711 23.6283 58.8121 22.6692 59.6809 21.4839L57.1748 19.6478C56.5999 20.4502 55.8392 21.1015 54.9577 21.5458C54.0762 21.9902 53.1002 22.2144 52.1132 22.1993C50.7074 22.1927 49.3505 21.6827 48.2884 20.7617C47.2263 19.8407 46.5293 18.5697 46.3236 17.179H60.5534L60.5452 16.05ZM46.3981 14.4414C47.0142 11.7658 49.1522 9.95451 51.7451 9.95451C54.338 9.95451 56.4718 11.7658 57.0508 14.4414H46.3981ZM31.8829 6.90675C30.729 6.90772 29.5866 7.13736 28.5219 7.5824C27.4572 8.02745 26.4913 8.67907 25.6799 9.49962V0.728516H22.2269V24.8211H25.6385V22.5963C27.2913 24.2683 29.5403 25.2158 31.8912 25.2305C33.1108 25.2564 34.3232 25.0386 35.4574 24.5898C36.5917 24.1411 37.6249 23.4703 38.4966 22.617C39.3682 21.7637 40.0608 20.7449 40.5335 19.6205C41.0063 18.496 41.2498 17.2885 41.2498 16.0686C41.2498 14.8488 41.0063 13.6413 40.5335 12.5168C40.0608 11.3924 39.3682 10.3736 38.4966 9.52028C37.6249 8.66695 36.5917 7.99624 35.4574 7.54745C34.3232 7.09866 33.1108 6.88084 31.8912 6.90675H31.8829ZM31.6348 22.1456C30.4312 22.1513 29.2531 21.7994 28.2498 21.1344C27.2466 20.4695 26.4635 19.5215 25.9998 18.4108C25.5362 17.3001 25.413 16.0767 25.6458 14.8958C25.8786 13.7149 26.4569 12.6298 27.3074 11.7782C28.1579 10.9265 29.2422 10.3467 30.4228 10.1123C31.6033 9.87785 32.8269 9.9994 33.9383 10.4615C35.0496 10.9236 35.9987 11.7054 36.665 12.7078C37.3313 13.7101 37.6848 14.8878 37.6807 16.0914C37.6818 16.8853 37.5261 17.6715 37.2226 18.4051C36.919 19.1386 36.4736 19.805 35.9119 20.366C35.3501 20.927 34.6831 21.3715 33.9492 21.674C33.2152 21.9766 32.4287 22.1312 31.6348 22.129V22.1456ZM9.51062 21.9801C12.8437 21.9801 15.4325 19.4245 15.4325 15.5951V0.728516H19.0096V24.8211H15.4738V22.5426C14.6478 23.3963 13.6571 24.0736 12.5617 24.5335C11.4664 24.9934 10.2892 25.2263 9.10122 25.2181C3.96096 25.2181 0.00341797 21.4715 0.00341797 15.7895V0.728516H3.64667V15.6158C3.64667 19.4658 6.12789 21.9801 9.51062 21.9801Z" fill="black"/>
</svg>
