<svg width="56" height="55" viewBox="0 0 56 55" fill="none" xmlns="http://www.w3.org/2000/svg">
<g clip-path="url(#clip0_8_1498)">
<path d="M47.6694 0.803708C47.3608 0.625676 46.993 0.574946 46.6464 0.662617C46.2999 0.750289 46.0028 0.969223 45.8202 1.27151L36.1488 17.3629C36.0992 17.4464 36.0592 17.535 36.0294 17.6271C34.9473 18.0211 33.9373 18.5846 33.0386 19.2958C30.1082 14.4062 24.7389 11.3274 18.8731 11.3274C9.82201 11.3274 2.45955 18.5482 2.43432 27.4316H0.300781L0.49155 28.9238C1.6017 37.5969 7.04786 45.1724 14.8786 49.1614V54.2825H35.0842C37.6454 54.2825 39.7291 52.2342 39.7291 49.7181V49.162C47.5623 45.1712 53.006 37.5957 54.1186 28.9238L54.3094 27.4304H50.4565C50.4386 22.8962 47.478 19.0413 43.3599 17.586L55.4263 6.18162C55.9629 5.67453 55.9802 4.83442 55.462 4.30739C55.3392 4.18191 55.1925 4.08142 55.0302 4.01166C54.8678 3.94189 54.6931 3.90422 54.5159 3.9008C54.3388 3.89738 54.1627 3.92827 53.9977 3.9917C53.8327 4.05514 53.682 4.14988 53.5543 4.27052L40.1131 16.9761C39.9925 16.9713 39.8725 16.958 39.75 16.958C39.6725 16.958 39.598 16.9689 39.5217 16.9701L48.1457 2.61992C48.2359 2.46995 48.2951 2.30401 48.3199 2.13157C48.3448 1.95913 48.3348 1.78357 48.2906 1.61491C48.2464 1.44626 48.1687 1.28781 48.0621 1.14863C47.9556 1.00944 47.8221 0.892233 47.6694 0.803708ZM18.8725 13.9801C24.0399 13.9801 28.75 16.8371 31.0928 21.3133C30.2387 22.467 29.6331 23.7797 29.3131 25.1711C28.2392 20.4762 23.9697 16.9568 18.8725 16.9568C12.9851 16.9568 8.19555 21.6517 8.17032 27.431H5.13524C5.15986 20.0108 11.3112 13.9801 18.8725 13.9801ZM18.8725 22.5934C16.1463 22.5934 13.9279 24.7601 13.9026 27.431H10.8719C10.8971 23.1144 14.4743 19.6101 18.8725 19.6101C23.2719 19.6101 26.8528 23.1144 26.8755 27.431H23.8411C23.8171 24.7601 21.5986 22.5934 18.8725 22.5934ZM21.1383 27.4316H16.6066C16.6187 26.8485 16.8627 26.2933 17.2865 25.8848C17.7102 25.4763 18.28 25.2471 18.8737 25.2461C19.4672 25.2472 20.0366 25.4766 20.4599 25.8852C20.8832 26.2937 21.1267 26.8488 21.1383 27.4316ZM51.1974 30.0843C49.6965 37.7927 44.374 44.3643 36.9974 47.512H32.6743V50.1653H36.9685C36.8674 50.5816 36.6266 50.9524 36.2849 51.218C35.9433 51.4837 35.5205 51.6287 35.0848 51.6298H17.5802V50.1653H22.6442V47.512H17.6128C10.2362 44.3661 4.91309 37.7927 3.41094 30.0843H51.1974ZM37.4848 27.4316C37.4967 26.8488 37.7404 26.2938 38.1638 25.8853C38.5872 25.4768 39.1565 25.2474 39.75 25.2461C40.344 25.2466 40.9142 25.4757 41.3382 25.8842C41.7623 26.2928 42.0064 26.8483 42.0183 27.4316H37.4848ZM39.75 19.6107C44.1512 19.6107 47.7334 23.115 47.7568 27.4316H44.7205C44.6959 24.7607 42.4768 22.594 39.75 22.594C37.0239 22.594 34.8072 24.7607 34.7826 27.4316H31.7494C31.774 23.115 35.3512 19.6107 39.75 19.6107Z" fill="white"/>
<path d="M39.1741 42.9137C39.3901 42.9137 39.6086 42.8635 39.8098 42.7565C41.4591 41.8894 42.9065 40.6944 44.0598 39.2477C45.2131 37.801 46.0469 36.1342 46.5082 34.3536C46.5524 34.1846 46.5622 34.0086 46.537 33.8358C46.5118 33.663 46.4522 33.4968 46.3614 33.3468C46.2707 33.1967 46.1507 33.0657 46.0083 32.9612C45.8659 32.8568 45.7039 32.781 45.5316 32.7382C45.3593 32.6954 45.1801 32.6865 45.0043 32.7118C44.8285 32.7372 44.6595 32.7964 44.507 32.8861C44.3545 32.9757 44.2215 33.0941 44.1157 33.2343C44.0099 33.3745 43.9334 33.5339 43.8904 33.7033C43.5221 35.1264 42.856 36.4586 41.9345 37.6149C41.0131 38.7712 39.8565 39.7263 38.5384 40.4193C38.2726 40.5583 38.0618 40.7805 37.9395 41.0508C37.8172 41.321 37.7905 41.6237 37.8636 41.9105C37.9367 42.1974 38.1054 42.452 38.3429 42.6338C38.5804 42.8156 38.873 42.9141 39.1741 42.9137Z" fill="white"/>
<path d="M35.9059 45.0061C36.7903 45.0061 37.5072 44.302 37.5072 43.4335C37.5072 42.5649 36.7903 41.8608 35.9059 41.8608C35.0216 41.8608 34.3047 42.5649 34.3047 43.4335C34.3047 44.302 35.0216 45.0061 35.9059 45.0061Z" fill="white"/>
</g>
<defs>
<clipPath id="clip0_8_1498">
<rect width="56" height="55" fill="white"/>
</clipPath>
</defs>
</svg>
